#!OML:ASF F:\VICON\USERDATA\INSTALL\rory3\rory3.ASF
:FULLY-SPECIFIED
:DEGREES
560
root 1.03307 18.1954 0.959185 -181.136 -3.02615 179.596
lowerback 7.9258 0.607235 -0.422385
upperback -0.0399686 0.764583 0.485251
thorax -4.50054 0.381383 0.652264
lowerneck -21.1839 -6.42209 -13.1728
upperneck 27.4581 -9.2531 10.8789
head 14.0764 -4.39412 4.7808
rclavicle 1.6524e-015 -4.96962e-015
rhumerus -33.5554 -8.31908 -84.9448
rradius 32.3449
rwrist 6.21084
rhand -14.9754 7.41498
rfingers 7.12502
rthumb 11.1885 -22.2667
lclavicle 1.6524e-015 -4.96962e-015
lhumerus -36.6185 3.87401 85.4783
lradius 31.6957
lwrist -4.34906
lhand -20.0654 25.0631
lfingers 7.12502
lthumb 6.27668 54.9501
rfemur -1.00359 -0.346887 19.4941
rtibia 19.8515
rfoot -12.5129 -8.88894
rtoes -3.76628
lfemur 7.98938 -12.5955 -22.1535
ltibia -9.54166e-015
lfoot -1.81597 2.91819
ltoes 2.85066
561
root 1.02442 18.1944 0.954889 -181.077 -2.98074 179.596
lowerback 7.94635 0.653076 -0.423457
upperback -0.0823702 0.827062 0.491455
thorax -4.55731 0.413123 0.651508
lowerneck -21.2412 -6.4171 -13.2198
upperneck 27.5 -9.24523 10.9343
head 14.1118 -4.3879 4.81451
rclavicle -7.57867e-016 7.95139e-016
rhumerus -33.642 -8.40622 -84.8639
rradius 32.4002
rwrist 6.28701
rhand -14.9686 7.36664
rfingers 7.12502
rthumb 11.1951 -22.3147
lclavicle -7.57867e-016 7.95139e-016
lhumerus -36.6201 3.82625 85.5556
lradius 31.6751
lwrist -4.35545
lhand -19.9839 25.2458
lfingers 7.12502
lthumb 6.35532 55.1305
rfemur -1.05902 -0.352031 19.4479
rtibia 19.8435
rfoot -12.5154 -8.80658
rtoes -3.56284
lfemur 7.94999 -12.728 -22.1955
ltibia 7.95139e-016
lfoot -1.81521 3.1034
ltoes 3.11116
562
root 1.01713 18.1946 0.949368 -180.991 -3.01252 179.573
lowerback 7.89582 0.654471 -0.480478
upperback -0.157551 0.827322 0.508829
thorax -4.6083 0.4162 0.701582
lowerneck -21.1518 -6.37435 -13.1802
upperneck 27.5058 -9.18553 10.8538
head 14.0779 -4.37245 4.78714
rclavicle -1.04113e-014 -6.75868e-015
rhumerus -33.765 -8.35825 -84.783
rradius 32.4198
rwrist 6.29393
rhand -15.0212 7.31995
rfingers 7.12502
rthumb 11.1443 -22.3641
lclavicle -1.04113e-014 -6.75868e-015
lhumerus -36.7431 3.76965 85.6228
lradius 31.7491
lwrist -4.24299
lhand -19.8552 25.2243
lfingers 7.12502
lthumb 6.47962 55.1052
rfemur -1.11898 -0.407037 19.377
rtibia 19.8232
rfoot -12.5476 -8.7341
rtoes -3.32682
lfemur 7.88263 -12.9382 -22.2601
ltibia 1.43125e-014
lfoot -1.8217 3.25872
ltoes 3.10801
563
root 1.01184 18.197 0.945369 -180.963 -3.11517 179.625
lowerback 7.89692 0.636087 -0.452499
upperback -0.221423 0.807767 0.518457
thorax -4.67489 0.407058 0.697749
lowerneck -21.0487 -6.33434 -13.1604
upperneck 27.5397 -9.1563 10.8326
head 14.063 -4.36834 4.78256
rclavicle -1.35111e-014 2.5842e-015
rhumerus -33.825 -8.37696 -84.7298
rradius 32.3275
rwrist 6.34016
rhand -14.9234 7.30716
rfingers 7.12502
rthumb 11.2387 -22.3718
lclavicle -1.35111e-014 2.5842e-015
lhumerus -36.8746 3.69781 85.6536
lradius 31.8433
lwrist -4.13974
lhand -19.7645 25.4154
lfingers 7.12502
lthumb 6.56715 55.2936
rfemur -1.12127 -0.471291 19.4181
rtibia 19.8187
rfoot -12.5611 -8.76814
rtoes -3.51673
lfemur 7.85229 -13.2204 -22.2462
ltibia 7.15625e-015
lfoot -1.78669 3.41365
ltoes 3.06165
564
root 1.00802 18.1981 0.941481 -181.028 -3.22047 179.606
lowerback 7.93107 0.616642 -0.496139
upperback -0.188053 0.776007 0.505302
thorax -4.65924 0.391664 0.712274
lowerneck -21.1047 -6.31639 -13.1664
upperneck 27.6166 -9.15603 10.8872
head 14.1117 -4.36409 4.80817
rclavicle -1.05604e-015 -5.96354e-016
rhumerus -33.7379 -8.50124 -84.6896
rradius 32.1991
rwrist 6.4829
rhand -14.9012 7.16648
rfingers 7.12502
rthumb 11.2601 -22.5113
lclavicle -1.05604e-015 -5.96354e-016
lhumerus -36.8555 3.70918 85.6595
lradius 31.8478
lwrist -4.14374
lhand -19.7673 25.574
lfingers 7.12502
lthumb 6.56449 55.4523
rfemur -1.00631 -0.483396 19.3907
rtibia 19.7994
rfoot -12.5878 -8.85314
rtoes -3.31556
lfemur 7.93051 -13.4999 -22.326
ltibia 0
lfoot -1.77951 3.61163
ltoes 3.5351
565
root 1.00331 18.1946 0.938231 -181.046 -3.2711 179.585
lowerback 7.89759 0.583118 -0.550089
upperback -0.147214 0.725726 0.512371
thorax -4.59778 0.367438 0.756404
lowerneck -21.1605 -6.28937 -13.1271
upperneck 27.6058 -9.10576 10.8636
head 14.1073 -4.33699 4.80106
rclavicle 2.70844e-015 2.5842e-015
rhumerus -33.6527 -8.56082 -84.6579
rradius 32.1315
rwrist 6.61383
rhand -14.854 7.03154
rfingers 7.12502
rthumb 11.3055 -22.6438
lclavicle 2.70844e-015 2.5842e-015
lhumerus -36.8299 3.87181 85.6138
lradius 31.809
lwrist -4.29917
lhand -19.6288 25.5394
lfingers 7.12502
lthumb 6.69814 55.4134
rfemur -0.948349 -0.472913 19.3624
rtibia 19.7679
rfoot -12.5717 -8.94325
rtoes -3.51191
lfemur 7.96952 -13.7258 -22.4
ltibia -1.19271e-014
lfoot -1.7969 3.80645
ltoes 3.84936
566
root 0.9978 18.1957 0.934563 -180.965 -3.28202 179.616
lowerback 7.80553 0.570639 -0.542675
upperback -0.169445 0.711328 0.511713
thorax -4.56874 0.360658 0.753876
lowerneck -21.1033 -6.26144 -13.087
upperneck 27.5261 -9.06937 10.8599
head 14.0524 -4.31644 4.79818
rclavicle -3.55949e-015 -1.13307e-014
rhumerus -33.6524 -8.62174 -84.6535
rradius 32.1379
rwrist 6.75007
rhand -14.6613 6.81839
rfingers 7.12502
rthumb 11.4914 -22.8466
lclavicle -3.55949e-015 -1.13307e-014
lhumerus -36.9025 4.00457 85.5244
lradius 31.833
lwrist -4.46543
lhand -19.4883 25.3113
lfingers 7.12502
lthumb 6.83377 55.181
rfemur -1.03158 -0.405458 19.397
rtibia 19.7746
rfoot -12.3782 -9.36103
rtoes -3.66652
lfemur 7.90101 -13.9179 -22.3892
ltibia -1.19271e-014
lfoot -1.76303 3.95592
ltoes 3.52378
